<mxfile host="app.diagrams.net" agent="Mozilla/5.0 (Windows NT 10.0; Win64; x64) AppleWebKit/537.36 (KHTML, like Gecko) Chrome/139.0.0.0 Safari/537.36" version="28.1.2">
  <diagram name="Page-1" id="WeMsaDAj4d8BDdjOSSxg">
    <mxGraphModel dx="629" dy="367" grid="1" gridSize="10" guides="1" tooltips="1" connect="1" arrows="1" fold="1" page="1" pageScale="1" pageWidth="850" pageHeight="1100" math="0" shadow="0">
      <root>
        <mxCell id="0" />
        <mxCell id="1" parent="0" />
        <mxCell id="K-NCKWekuo-NgnCu7YS4-1" value="Plan" style="ellipse;whiteSpace=wrap;html=1;" vertex="1" parent="1">
          <mxGeometry x="350" y="210" width="120" height="70" as="geometry" />
        </mxCell>
        <mxCell id="K-NCKWekuo-NgnCu7YS4-2" value="" style="endArrow=classic;html=1;rounded=0;exitX=0.5;exitY=1;exitDx=0;exitDy=0;" edge="1" parent="1" source="K-NCKWekuo-NgnCu7YS4-1" target="K-NCKWekuo-NgnCu7YS4-3">
          <mxGeometry width="50" height="50" relative="1" as="geometry">
            <mxPoint x="420" y="310" as="sourcePoint" />
            <mxPoint x="410" y="310" as="targetPoint" />
            <Array as="points" />
          </mxGeometry>
        </mxCell>
        <mxCell id="K-NCKWekuo-NgnCu7YS4-3" value="Develop" style="ellipse;whiteSpace=wrap;html=1;" vertex="1" parent="1">
          <mxGeometry x="350" y="310" width="120" height="80" as="geometry" />
        </mxCell>
        <mxCell id="K-NCKWekuo-NgnCu7YS4-7" value="Text" style="text;html=1;align=center;verticalAlign=middle;resizable=0;points=[];autosize=1;strokeColor=none;fillColor=none;" vertex="1" parent="1">
          <mxGeometry x="695" y="398" width="50" height="30" as="geometry" />
        </mxCell>
        <mxCell id="K-NCKWekuo-NgnCu7YS4-8" value="Build" style="ellipse;whiteSpace=wrap;html=1;" vertex="1" parent="1">
          <mxGeometry x="365" y="420" width="120" height="70" as="geometry" />
        </mxCell>
        <mxCell id="K-NCKWekuo-NgnCu7YS4-11" value="" style="endArrow=classic;html=1;rounded=0;exitX=0.5;exitY=1;exitDx=0;exitDy=0;exitPerimeter=0;" edge="1" parent="1" source="K-NCKWekuo-NgnCu7YS4-8">
          <mxGeometry width="50" height="50" relative="1" as="geometry">
            <mxPoint x="450" y="510" as="sourcePoint" />
            <mxPoint x="425" y="520" as="targetPoint" />
          </mxGeometry>
        </mxCell>
        <mxCell id="K-NCKWekuo-NgnCu7YS4-12" value="Test" style="ellipse;whiteSpace=wrap;html=1;" vertex="1" parent="1">
          <mxGeometry x="365" y="520" width="120" height="80" as="geometry" />
        </mxCell>
        <mxCell id="K-NCKWekuo-NgnCu7YS4-14" value="" style="endArrow=classic;html=1;rounded=0;entryX=0.458;entryY=0;entryDx=0;entryDy=0;entryPerimeter=0;" edge="1" parent="1" target="K-NCKWekuo-NgnCu7YS4-8">
          <mxGeometry width="50" height="50" relative="1" as="geometry">
            <mxPoint x="420" y="390" as="sourcePoint" />
            <mxPoint x="430" y="410" as="targetPoint" />
          </mxGeometry>
        </mxCell>
        <mxCell id="K-NCKWekuo-NgnCu7YS4-16" value="" style="endArrow=classic;html=1;rounded=0;exitX=0.542;exitY=1;exitDx=0;exitDy=0;exitPerimeter=0;" edge="1" parent="1" source="K-NCKWekuo-NgnCu7YS4-12" target="K-NCKWekuo-NgnCu7YS4-17">
          <mxGeometry width="50" height="50" relative="1" as="geometry">
            <mxPoint x="390" y="590" as="sourcePoint" />
            <mxPoint x="425" y="630" as="targetPoint" />
            <Array as="points">
              <mxPoint x="430" y="620" />
            </Array>
          </mxGeometry>
        </mxCell>
        <mxCell id="K-NCKWekuo-NgnCu7YS4-17" value="Release" style="ellipse;whiteSpace=wrap;html=1;" vertex="1" parent="1">
          <mxGeometry x="365" y="630" width="120" height="70" as="geometry" />
        </mxCell>
        <mxCell id="K-NCKWekuo-NgnCu7YS4-18" value="" style="endArrow=classic;html=1;rounded=0;exitX=0.5;exitY=1;exitDx=0;exitDy=0;" edge="1" parent="1" source="K-NCKWekuo-NgnCu7YS4-17">
          <mxGeometry width="50" height="50" relative="1" as="geometry">
            <mxPoint x="430" y="720" as="sourcePoint" />
            <mxPoint x="425" y="730" as="targetPoint" />
          </mxGeometry>
        </mxCell>
        <mxCell id="K-NCKWekuo-NgnCu7YS4-19" value="Deploy" style="ellipse;whiteSpace=wrap;html=1;" vertex="1" parent="1">
          <mxGeometry x="365" y="730" width="120" height="70" as="geometry" />
        </mxCell>
        <mxCell id="K-NCKWekuo-NgnCu7YS4-20" value="" style="endArrow=classic;html=1;rounded=0;exitX=0.542;exitY=1;exitDx=0;exitDy=0;exitPerimeter=0;" edge="1" parent="1" source="K-NCKWekuo-NgnCu7YS4-19">
          <mxGeometry width="50" height="50" relative="1" as="geometry">
            <mxPoint x="385" y="850" as="sourcePoint" />
            <mxPoint x="430" y="830" as="targetPoint" />
          </mxGeometry>
        </mxCell>
        <mxCell id="K-NCKWekuo-NgnCu7YS4-21" value="Operate" style="ellipse;whiteSpace=wrap;html=1;" vertex="1" parent="1">
          <mxGeometry x="370" y="830" width="120" height="70" as="geometry" />
        </mxCell>
        <mxCell id="K-NCKWekuo-NgnCu7YS4-22" value="" style="endArrow=classic;html=1;rounded=0;exitX=0.5;exitY=1;exitDx=0;exitDy=0;exitPerimeter=0;" edge="1" parent="1" source="K-NCKWekuo-NgnCu7YS4-21">
          <mxGeometry width="50" height="50" relative="1" as="geometry">
            <mxPoint x="420" y="960" as="sourcePoint" />
            <mxPoint x="430" y="930" as="targetPoint" />
          </mxGeometry>
        </mxCell>
        <mxCell id="K-NCKWekuo-NgnCu7YS4-23" value="Monitor" style="ellipse;whiteSpace=wrap;html=1;" vertex="1" parent="1">
          <mxGeometry x="370" y="930" width="120" height="80" as="geometry" />
        </mxCell>
        <mxCell id="K-NCKWekuo-NgnCu7YS4-24" value="" style="rhombus;whiteSpace=wrap;html=1;" vertex="1" parent="1">
          <mxGeometry x="1000" y="1110" width="80" height="100" as="geometry" />
        </mxCell>
      </root>
    </mxGraphModel>
  </diagram>
</mxfile>
